<svg width="760" height="403" xmlns="http://www.w3.org/2000/svg" aria-label="CCUS dMRV" role="img">
 <defs>
  <filter height="140%" width="140%" y="-20%" x="-20%" id="soft">
   <feGaussianBlur stdDeviation="12"/>
  </filter>
  <linearGradient y2="1" x2="1" y1="0" x1="0" id="g">
   <stop stop-color="#0b4f6c" offset="0"/>
   <stop stop-color="#00a6fb" offset="1"/>
  </linearGradient>
 </defs>
 <!-- Soft blob background -->
 <!-- Badge -->
 <g>
  <title>Layer 1</title>
  <rect stroke="null" x="0" y="20" id="svg_1" fill="#ffffff" height="381.99999" width="760.00003"/>
  <circle id="svg_2" filter="url(#soft)" opacity="0.14" fill="url(#g)" r="180" cy="180" cx="184.00002"/>
  <circle stroke="null" id="svg_3" filter="url(#soft)" opacity="0.12" fill="url(#g)" r="199" cy="203.99999" cx="543.00002"/>
  <g id="svg_4">
   <rect id="svg_5" stroke-width="2" stroke="#d9e2ec" fill="#ffffff" rx="28" height="340" width="520" y="31" x="119.00002"/>
   <rect id="svg_6" opacity="0.1" fill="url(#g)" rx="22" height="300" width="480" y="51" x="139.00002"/>
   <text id="svg_7" fill="#0b4f6c" font-weight="700" font-size="64" font-family="ui-sans-serif, system-ui, -apple-system, Segoe UI, Roboto, Arial" y="127" x="157.00002">CCUS dMRV</text>
   <text id="svg_8" fill="#334e68" font-weight="500" font-size="18" font-family="ui-sans-serif, system-ui, -apple-system, Segoe UI, Roboto, Arial" y="163" x="159.00002">Digital Monitoring, Reporting &amp; Verification</text>
   <!-- Simple pipeline / nodes -->
   <g id="svg_9" opacity="0.9" stroke-width="3" stroke="#0b4f6c" fill="none">
    <circle id="svg_10" fill="#0b4f6c" r="10" cy="261" cx="159.00002"/>
    <circle id="svg_11" fill="#0b4f6c" r="10" cy="261" cx="339.00002"/>
    <circle id="svg_12" fill="#0b4f6c" r="10" cy="261" cx="519.00002"/>
    <line id="svg_13" y2="261" x2="327.00002" y1="261" x1="171.00002"/>
    <line id="svg_14" y2="261" x2="507.00002" y1="261" x1="351.00002"/>
    <path id="svg_15" stroke="#00a6fb" d="m519.00002,273c0,40 -36,66 -80,66"/>
    <path id="svg_16" stroke="#00a6fb" d="m519.00002,273c0,40 36,66 80,66"/>
    <circle id="svg_17" stroke="#00a6fb" fill="#00a6fb" r="9" cy="339" cx="439.00002"/>
    <circle id="svg_18" stroke="#00a6fb" fill="#00a6fb" r="9" cy="339" cx="599.00002"/>
   </g>
  </g>
 </g>
</svg>